<?xml version="1.0" encoding="utf-8"?>
<!-- Generator: Adobe Illustrator 22.1.0, SVG Export Plug-In . SVG Version: 6.00 Build 0)  -->
<svg version="1.1" id="Capa_1" xmlns="http://www.w3.org/2000/svg" xmlns:xlink="http://www.w3.org/1999/xlink" x="0px" y="0px"
	 viewBox="0 0 363 363" style="enable-background:new 0 0 363 363;" xml:space="preserve">
<g>
	<path d="M318.3,344.2l-15.6-15.6V126.8l-2.9-2.9l-25.8-25.8V8.2H43.1v300h29.1v29.1h222.5l15.6,15.6c1.1,1.1,2.9,1.8,4,1.8
		c1.5,0,3.3-0.7,4-1.8C320.5,350,320.5,346,318.3,344.2z M282.7,122.8h-66.9V55.9l57.8,57.8L282.7,122.8z M54.3,296.2V19.2h207.6
		v66.9L215,39.2l-2.9-2.9H71.4v260H54.3L54.3,296.2z M83.1,325.3v-17.1v-260h121.4v86.5H291v182.2l-43.3-43.3
		c9.8-12,16.4-27.3,16.4-44c0-37.4-30.5-68.4-68.4-68.4c-37.4,0-68.4,30.5-68.4,68.4c0,37.4,30.5,68.4,68.4,68.4
		c16.7,0,32-6.2,44-16.4l43.3,43.3L83.1,325.3L83.1,325.3z M195.4,286.4c-31.3,0-56.7-25.5-56.7-56.7s25.5-56.7,56.7-56.7
		s56.7,25.5,56.7,56.7C252.5,260.6,226.7,286.4,195.4,286.4z"/>
	<path d="M161.6,215.1h34.9c3.3,0,5.8-2.5,5.8-5.8c0-3.3-2.5-5.8-5.8-5.8h-34.9c-3.3,0-5.8,2.5-5.8,5.8
		C156.1,213,158.7,215.1,161.6,215.1z"/>
	<path d="M231,238.4H162c-3.3,0-5.8,2.5-5.8,5.8c0,3.3,2.5,5.8,5.8,5.8H231c3.3,0,5.8-2.5,5.8-5.8
		C236.9,240.9,234.3,238.4,231,238.4z"/>
</g>
</svg>
