<?xml version="1.0" encoding="utf-8"?>
<!-- Generator: Adobe Illustrator 22.1.0, SVG Export Plug-In . SVG Version: 6.00 Build 0)  -->
<svg version="1.1" id="Capa_1" xmlns="http://www.w3.org/2000/svg" xmlns:xlink="http://www.w3.org/1999/xlink" x="0px" y="0px"
	 viewBox="0 0 363 363" style="enable-background:new 0 0 363 363;" xml:space="preserve">
<g>
	<g>
		<path d="M166.7,164.7c7.3,0,13.5-5.8,13.5-13.5c0-7.7-5.8-13.5-13.5-13.5c-7.3,0-13.5,5.8-13.5,13.5
			C153.2,159,159,164.7,166.7,164.7z M166.7,145.9c3.1,0,5.4,2.3,5.4,5.4c0,3.1-2.3,5.4-5.4,5.4s-5.4-2.3-5.4-5.4
			C160.9,148.2,163.6,145.9,166.7,145.9z"/>
		<path d="M196.3,167.8c-7.3,0-13.5,5.8-13.5,13.5c0,7.7,5.8,13.5,13.5,13.5l0,0c7.3,0,13.5-5.8,13.5-13.5
			C209.8,173.6,204,167.8,196.3,167.8z M196.3,186.7c-3.1,0-5.4-2.3-5.4-5.4s2.3-5.4,5.4-5.4s5.4,2.3,5.4,5.4
			C201.7,184,199.4,186.7,196.3,186.7z"/>
		<path d="M158.2,189.8c0.8,0.8,1.9,1.2,2.7,1.2c1.2,0,1.9-0.4,2.7-1.2l42.3-42.3c1.2-1.5,1.2-3.5,0-4.6c-1.5-1.9-3.8-1.9-5.4-0.8
			l-42.3,42.3C156.3,185.5,156.3,188.2,158.2,189.8z"/>
	</g>
	<g>
		<g>
			<path d="M249.4,36.9l-15.8,4.2c-7.3,1.9-12.3,9.2-11.9,17.3c-10.4,10-62.4,56.2-138.6,88.2c-4.2,1.9-7.3,5.4-8.9,9.6l-13.9,3.5
				c-8.5,2.3-13.5,11.5-11.2,21.2l8.9,34.6c2.3,9.2,11.5,15,20,12.7l13.9-3.5c3.5,3.1,8.1,4.6,12.7,4.2c0.8,0,1.5,0,2.3-0.4
				l49.3,88.9c3.8,6.9,11.2,10.4,18.1,8.5l28.5-7.3l0,0l0,0l0,0c2.7-0.8,4.2-3.8,3.5-6.5c-0.8-3.1-2.3-5.4-2.3-5.4L159,226
				c55.8,0,98.2,9.6,108.9,12.3c3.5,7.3,11.2,11.5,18.9,9.6l15.8-4.2c8.5-2.3,13.5-11.5,11.2-21.2l-45-172.8
				C267.2,40.4,257.9,34.6,249.4,36.9z M86.2,214.8l-10.8,2.7c-3.1,0.8-6.5-1.2-7.3-4.6l-8.9-34.6c-0.8-3.5,0.8-6.9,4.2-7.7
				l10.8-2.7C73.9,167.8,86.2,214.8,86.2,214.8z M194.4,309.5l-22.7,5.8c-2.7,0.8-5.4-0.8-6.5-3.1l-47-84.7
				c10.4-0.8,20.4-1.5,30-1.5L194.4,309.5z M304.5,224.8c0.8,3.5-0.8,6.9-4.2,7.7l-15.8,4.2c-3.1,0.8-6.5-1.2-7.3-4.6l0,0l0,0
				l-33.1-126.6c-0.8-3.1-3.5-5-6.5-4.2c-2.7,0.8-4.2,3.8-3.5,6.5L264.8,226c-22.3-5-86.2-16.9-162.1-8.1c-3.1,0.4-5.8-1.5-6.5-4.6
				l-12.7-48.9c-0.8-3.1,0.8-6.2,3.5-7.3c70.1-29.3,120.5-71.2,137.4-86.2l3.8,14.2c0.8,3.1,3.5,5,6.5,4.2c2.7-0.8,4.2-3.8,3.5-6.5
				l-6.2-23.1l0,0l0,0c-0.8-3.5,0.8-6.9,4.2-7.7l15.8-4.2c3.1-0.8,6.5,1.2,7.3,4.6L304.5,224.8L304.5,224.8z"/>
		</g>
	</g>
</g>
</svg>
