<?xml version="1.0" encoding="utf-8"?>
<!-- Generator: Adobe Illustrator 22.1.0, SVG Export Plug-In . SVG Version: 6.00 Build 0)  -->
<svg version="1.1" id="Capa_1" xmlns="http://www.w3.org/2000/svg" xmlns:xlink="http://www.w3.org/1999/xlink" x="0px" y="0px"
	 viewBox="0 0 363 363" style="enable-background:new 0 0 363 363;" xml:space="preserve">
<g>
	<path d="M310.5,47h-45.1c-2.6,0-4.8,2.2-4.8,4.8c0,2.6,2.2,4.8,4.8,4.8h27.4c-1.9,3-3,6.7-3,10.4v232.8c0,2.6,2.2,4.8,4.8,4.8
		c2.6,0,4.8-2.2,4.8-4.8V67c0-5.9,4.8-10.4,10.4-10.4c5.9,0,10.4,4.8,10.4,10.4v232.8c0,14.4-11.5,25.9-25.9,25.9
		c-14.4,0-25.9-11.5-25.9-25.9V32.2c0-2.6-2.2-4.8-4.8-4.8H37.4c-2.6,0-4.8,2.2-4.8,4.8v267.5c0,19.6,15.9,35.9,35.9,35.9h226.1
		c19.6,0,35.9-15.9,35.9-35.9V67C330.8,56.2,321.6,47,310.5,47z M68.8,326c-14.4,0-25.9-11.5-25.9-25.9V37.4H259v262.7
		c0,10,4.4,19.2,11.1,25.9C270.1,326,68.8,326,68.8,326z"/>
	<path d="M237.9,153.2h-77c-2.6,0-4.8,2.2-4.8,4.8c0,2.6,2.2,4.8,4.8,4.8h77c2.6,0,4.8-2.2,4.8-4.8
		C242.7,155.4,240.5,153.2,237.9,153.2z"/>
	<path d="M141.3,153.2h-77c-2.6,0-4.8,2.2-4.8,4.8c0,2.6,2.2,4.8,4.8,4.8h77c2.6,0,4.8-2.2,4.8-4.8
		C146.2,155.4,143.9,153.2,141.3,153.2z"/>
	<path d="M237.9,172.8h-77c-2.6,0-4.8,2.2-4.8,4.8c0,2.6,2.2,4.8,4.8,4.8h77c2.6,0,4.8-2.2,4.8-4.8
		C242.7,175.4,240.5,172.8,237.9,172.8z"/>
	<path d="M141.3,172.8h-77c-2.6,0-4.8,2.2-4.8,4.8c0,2.6,2.2,4.8,4.8,4.8h77c2.6,0,4.8-2.2,4.8-4.8
		C146.2,175.4,143.9,172.8,141.3,172.8z"/>
	<path d="M237.9,192.8h-77c-2.6,0-4.8,2.2-4.8,4.8c0,2.6,2.2,4.8,4.8,4.8h77c2.6,0,4.8-2.2,4.8-4.8
		C242.7,195,240.5,192.8,237.9,192.8z"/>
	<path d="M237.9,70.3h-77c-2.6,0-4.8,2.2-4.8,4.8c0,2.6,2.2,4.8,4.8,4.8h77c2.6,0,4.8-2.2,4.8-4.8C242.7,72.5,240.5,70.3,237.9,70.3
		z"/>
	<path d="M237.9,89.9h-77c-2.6,0-4.8,2.2-4.8,4.8c0,2.6,2.2,4.8,4.8,4.8h77c2.6,0,4.8-2.2,4.8-4.8C242.7,92.1,240.5,89.9,237.9,89.9
		z"/>
	<path d="M237.9,109.5h-77c-2.6,0-4.8,2.2-4.8,4.8c0,2.6,2.2,4.8,4.8,4.8h77c2.6,0,4.8-2.2,4.8-4.8
		C242.7,111.7,240.5,109.5,237.9,109.5z"/>
	<path d="M237.9,212.4h-77c-2.6,0-4.8,2.2-4.8,4.8c0,2.6,2.2,4.8,4.8,4.8h77c2.6,0,4.8-2.2,4.8-4.8
		C242.7,214.6,240.5,212.4,237.9,212.4z"/>
	<path d="M161,242h50.7c2.6,0,4.8-2.2,4.8-4.8c0-2.6-2.2-4.8-4.8-4.8H161c-2.6,0-4.8,2.2-4.8,4.8C155.8,239.8,158,242,161,242z"/>
	<path d="M211.7,291.2H161c-2.6,0-4.8,2.2-4.8,4.8c0,2.6,2.2,4.8,4.8,4.8h50.7c2.6,0,4.8-2.2,4.8-4.8
		C216.5,293.4,214.2,291.2,211.7,291.2z"/>
	<path d="M237.9,271.2h-77c-2.6,0-4.8,2.2-4.8,4.8s2.2,4.8,4.8,4.8h77c2.6,0,4.8-2.2,4.8-4.8S240.5,271.2,237.9,271.2z"/>
	<path d="M141.3,192.8h-77c-2.6,0-4.8,2.2-4.8,4.8V296c0,2.6,2.2,4.8,4.8,4.8h77c2.6,0,4.8-2.2,4.8-4.8v-98.4
		C146.2,195,143.9,192.8,141.3,192.8z M136.2,291.2h-67v-88.4h67V291.2z"/>
	<g>
		<path d="M84,118.4l-8.1-0.4c-5.2-1.1-7.4-2.2-8.5-7.4v-0.4c-0.4-1.1-0.4-1.9-0.4-3c0-0.4,0.4-1.1,0.4-1.5l7.8-29.6l0,0l0,0
			c4.4-7,7.8-8.5,15.2-9.6h18.1c2.2,0,4.1-1.9,4.1-4.1c0-2.2-1.9-4.1-4.1-4.1H90.3h-0.4c-9.3,1.1-14.8,3.3-21.1,12.6v0.4
			c-0.4,0.4-0.7,1.5-1.5,2.6l-8.1,31.5c0,0.4-0.4,1.5-0.4,2.2l0,0c0,0.4,0,0.4,0,0.7c1.5,13,7.8,15.5,15.5,17c0.4,0,0.7,0,0.7,0
			l8.5,0.4l0,0c2.2,0,3.7-1.9,3.7-4.1C87.7,119.9,85.8,118.4,84,118.4z"/>
		<path d="M100.3,106.6l9.6-15.5l2.2,14.1c0.4,1.1,0.7,1.9,1.5,2.6c0.7,0.4,1.5,0.7,2.2,0.7c0.4,0,0.4,0,0.7,0
			c1.1-0.4,1.9-0.7,2.6-1.5c0.7-0.7,0.7-1.9,0.7-3l-4.1-24.4c-0.4-1.5-1.5-3-3-3.3s-3.3,0.4-4.1,1.9l-9.6,15.2l-1.9-13.7
			c-0.4-1.5-1.5-3-3.3-3.3l0,0l0,0l0,0c-1.5-0.4-3.3,0.4-4.1,1.9l-13.3,24.4c-0.4,0.7-0.7,1.9-0.4,3c0.4,1.1,1.1,1.9,1.9,2.2
			s1.1,0.4,1.9,0.4c1.5,0,2.6-0.7,3.3-1.9L91,92.1l1.9,12.6c0.4,1.5,1.5,3,3,3.3C97.7,108.4,99.2,107.7,100.3,106.6z"/>
		<path d="M142.1,78.4L142.1,78.4c0-13.7-7.4-17-14.1-18.5c-0.4,0-0.7,0-1.1,0l-7.4-0.4l0,0c-1.1,0-1.9,0.4-2.6,1.1
			c-0.7,0.7-1.1,1.9-1.1,3c0,1.1,0.4,1.9,1.5,2.6c0.7,0.7,1.9,1.1,2.6,1.1l7,0.4c4.4,1.1,6.7,2.2,7.4,8.5c0,0.7,0.4,1.5,0,2.2
			c0,0.4-0.4,1.5-0.4,2.6l-6.7,28.5c-4.1,7-6.7,8.5-13,9.3H98.4c-2.2,0-4.1,1.9-4.1,4.1c0,2.2,1.9,4.1,4.1,4.1l0,0h16.3h0.4
			c8.5-1.1,13.7-3.3,19.6-13.7c0.4-0.4,0.4-1.5,0.4-1.5c1.9-8.1,7.4-30.7,7.4-31.1C142.1,79.9,142.1,79.6,142.1,78.4z"/>
	</g>
</g>
</svg>
