<?xml version="1.0" encoding="utf-8"?>
<!-- Generator: Adobe Illustrator 22.1.0, SVG Export Plug-In . SVG Version: 6.00 Build 0)  -->
<svg version="1.1" id="Capa_1" xmlns="http://www.w3.org/2000/svg" xmlns:xlink="http://www.w3.org/1999/xlink" x="0px" y="0px"
	 viewBox="0 0 363 363" style="enable-background:new 0 0 363 363;" xml:space="preserve">
<g>
	<path d="M71.8,340.7h244.3c10.4,0,18.5-8.6,18.5-18.5V40.8c0-10.4-8.6-18.5-18.5-18.5c-10.8,0-237.1,0-244.3,0
		c-10.4,0-18.5,8.6-18.5,18.5v22.6h-6.3c-10.4,0-18.5,8.6-18.5,18.5s8.6,18.5,18.5,18.5h6.3v24.8h-6.3c-10.4,0-18.5,8.6-18.5,18.5
		c0,10.4,8.6,18.5,18.5,18.5h6.3v37.5h-6.3c-10.4,0-18.5,8.6-18.5,18.5c0,10.4,8.6,18.5,18.5,18.5h6.3v24.8h-6.3
		c-10.4,0-18.5,8.6-18.5,18.5c0,10.4,8.6,18.5,18.5,18.5h6.3v22.6C52.8,332.5,61.4,340.7,71.8,340.7z M321.9,40.4v281.3
		c0,3.6-2.7,6.3-6.3,6.3h-7.2c0.9-1.8,0.9-4.1,0.9-6.3V40.4c0-2.3-0.5-4.1-0.9-6.3h7.2C319.2,34.5,321.9,37.2,321.9,40.4z
		 M46.5,87.8c-3.6,0-6.3-2.7-6.3-6.3c0-3.6,2.7-6.3,6.3-6.3h6.3v12.6H46.5z M46.5,150.1c-3.6,0-6.3-2.7-6.3-6.3s2.7-6.3,6.3-6.3h6.3
		v12.6H46.5z M46.5,225.1c-3.6,0-6.3-2.7-6.3-6.3s2.7-6.3,6.3-6.3h6.3v12.6H46.5z M84,212.4c-3.6,0-6.3,2.7-6.3,6.3
		c0,3.6-2.7,6.3-6.3,6.3H65v-62.3h6.3c10.4,0,18.5-8.6,18.5-18.5c0-3.6-2.7-6.3-6.3-6.3s-6.3,2.7-6.3,6.3s-2.7,6.3-6.3,6.3h-6.3
		v-49.7h6.3c10.4,0,18.5-8.6,18.5-18.5c0-3.6-2.7-6.3-6.3-6.3s-6.3,2.7-6.3,6.3s-2.7,6.3-6.3,6.3h-6.3V41.3c0-3.6,2.7-6.3,6.3-6.3
		h219.4c3.6,0,6.3,2.7,6.3,6.3v281.3c0,3.6-2.7,6.3-6.3,6.3H70.4c-3.6,0-6.3-2.7-6.3-6.3V300h6.3c10.4,0,18.5-8.6,18.5-18.5
		c0-3.6-2.7-6.3-6.3-6.3c-3.6,0-6.3,2.7-6.3,6.3s-2.7,6.3-6.3,6.3h-6.3v-49.7H70c10.4,0,18.5-8.6,18.5-18.5
		C90.3,215.1,87.6,212.4,84,212.4z M46.5,287.4c-3.6,0-6.3-2.7-6.3-6.3c0-3.6,2.7-6.3,6.3-6.3h6.3v12.6
		C52.8,287.4,46.5,287.4,46.5,287.4z"/>
	<path d="M157.1,218.8c14.9,14.9,32.5,26.6,52.4,34.8c11.7,5,24.8,2.3,33.9-6.8l10.4-10.4c7.2-7.2,7.2-19,0-26.6l-12.2-12.2l0,0
		c-9.9-9.9-26.6-5.9-30.7,7.2l-0.5,1.8c-19.9-5.9-35.7-21.2-41.5-41.5l1.8-0.5c13.1-4.5,17.2-21.2,7.2-30.7l-12.2-12.2
		c-7.2-7.2-19-7.2-26.6,0l-10.4,10.4c-9,9-11.7,22.1-6.8,33.9C130.5,185.8,142.2,203.4,157.1,218.8z M137.7,141.1l10.4-10.4
		c2.3-2.3,6.3-2.3,8.6,0l12.2,12.2c3.2,3.2,1.8,9-2.3,10.4l-7.2,2.3c-3.2,0.9-5,4.1-4.1,7.2c5.9,29.3,28.4,51.9,57.8,57.8
		c3.2,0.5,6.3-1.4,7.2-4.1l2.3-7.2c1.4-4.5,7.2-5.9,10.4-2.3l12.2,12.2c2.3,2.3,2.3,6.3,0,8.6l-10.4,10.4
		c-5.4,5.4-13.5,6.8-20.3,4.1c-36.1-14.9-65.5-44.3-80.8-80.8C130.9,154.6,132.7,146.5,137.7,141.1z"/>
</g>
</svg>
