<?xml version="1.0" encoding="utf-8"?>
<!-- Generator: Adobe Illustrator 22.1.0, SVG Export Plug-In . SVG Version: 6.00 Build 0)  -->
<svg version="1.1" id="Capa_1" xmlns="http://www.w3.org/2000/svg" xmlns:xlink="http://www.w3.org/1999/xlink" x="0px" y="0px"
	 viewBox="0 0 363 363" style="enable-background:new 0 0 363 363;" xml:space="preserve">
<g>
	<path d="M140.2,140.7c0,3.2,1.9,5.1,5.1,5.1l123,1.9c3.2,0,5.1-1.9,5.1-5.1c0-3.2-1.9-5.1-5.1-5.1l-123-1.9
		C142.7,135.6,140.2,138.1,140.2,140.7z"/>
	<path d="M268.3,168.6l-123-1.9c-3.2,0-5.1,1.9-5.1,5.1c0,3.2,1.9,5.1,5.1,5.1l123,1.9c3.2,0,5.1-1.9,5.1-5.1
		C273.4,171.2,271.4,168.6,268.3,168.6z"/>
	<path d="M268.3,199.5l-123-1.9c-3.2,0-5.1,1.9-5.1,5.1c0,3.2,1.9,5.1,5.1,5.1l123,1.9c3.2,0,5.1-1.9,5.1-5.1
		C273.4,201.7,271.4,199.5,268.3,199.5z"/>
	<path d="M268.3,230.6l-123-2.2c-3.2,0-5.1,1.9-5.1,5.1s1.9,5.1,5.1,5.1l123,1.9c3.2,0,5.1-1.9,5.1-5.1
		C273.4,232.8,271.4,230.6,268.3,230.6z"/>
	<path d="M308.3,102.8l-79.1-78.5H105.5v25.4H80.1v25.4H54.7v263.5h202.8v-25.4h25.4v-25.4h25.4V102.8z M232.4,41.5l58.8,58.8h-58.8
		V41.5z M247.6,328.2H65.2V85h15.3v227.9h167.2L247.6,328.2L247.6,328.2z M272.7,302.8H90.3V59.6h15.3v227.9h167.2V302.8z
		 M298.1,277.6H115.7V34.5h106.5v76h76V277.6z"/>
</g>
</svg>
