<?xml version="1.0" encoding="utf-8"?>
<!-- Generator: Adobe Illustrator 22.1.0, SVG Export Plug-In . SVG Version: 6.00 Build 0)  -->
<svg version="1.1" id="Capa_1" xmlns="http://www.w3.org/2000/svg" xmlns:xlink="http://www.w3.org/1999/xlink" x="0px" y="0px"
	 viewBox="0 0 363 363" style="enable-background:new 0 0 363 363;" xml:space="preserve">
<g>
	<path d="M332.2,243.9l-23.5-25.8c-2.7-2.7-5.7-4.2-9.1-4.2l0,0c-3.4,0-7.2,1.5-9.9,4.2c-1.1,1.1-1.9,2.7-2.7,4.2
		c-4.9-3-11.8-1.9-16.3,1.9c-1.1,1.1-1.9,2.7-2.7,4.2c-4.9-3-11.8-1.9-16.3,1.9c-1.1,1.1-1.9,2.7-2.7,3.4l-9.9-9.9
		c-4.9-4.9-13.7-4.9-19,0c-2.7,2.7-4.2,5.7-4.2,9.1s1.5,7.2,4.2,9.1l42.1,41.7l-22.8,3.4c-7.6,1.1-13.3,7.6-13.3,15.2
		c0,6.1,4.6,10.6,10.6,10.6h58.8c9.9,0,18.2-3.4,25.4-10.6l9.9-9.9c6.4-6.4,10.6-15.9,10.6-25.4
		C341.7,259.1,338.3,250.7,332.2,243.9z M325,287.1l-9.9,9.9c-4.9,4.9-11.8,8-19.3,8h-58.8c-1.1,0-1.9-1.1-1.9-1.9
		c0-3,2.7-6.1,5.7-6.4l31.5-4.9c1.5,0,3-1.5,3.4-3c0.4-1.5,0-3-1.1-4.6l-47.4-47.8c-1.5-1.5-1.5-4.6,0-6.1c1.1-1.1,1.9-1.5,3-1.5
		s2.7,0.4,3,1.5l31.5,31.5c1.5,1.5,4.6,1.5,6.1,0c1.1-1.1,1.5-1.9,1.5-3c0-1.1-0.4-1.9-1.5-3l-12.9-12.9c-1.1-1.1-1.5-1.9-1.5-3
		c0-1.1,0.4-2.7,1.5-3c1.5-0.8,2.3-1.5,3.4-1.5c1.1,0,2.7,0.4,3,1.5l12.9,12.9c1.5,1.5,4.6,1.5,6.1,0c1.1-1.1,1.5-1.9,1.5-3
		s-0.4-2.7-1.5-3l-6.4-6.4c-1.5-1.5-1.5-4.6,0-6.1c1.1-1.1,1.9-1.5,3-1.5c1.1,0,2.7,0.4,3,1.5l6.1,6.1l0,0l0.8,0.8l0,0
		c1.5,1.5,4.2,1.1,5.7-0.4s1.5-4.6,0-6.1l-0.4-0.4c-1.1-1.5-1.5-2.3-1.5-3.4c0-1.1,0.4-2.7,1.5-3c1.5-1.5,4.6-1.5,6.1,0l23.5,25.8
		c4.6,4.9,7.2,11.4,7.2,18.2C332.6,275.4,330,282.2,325,287.1z"/>
	<path d="M214.3,285.6H36.4c-3,0-5.7-2.7-5.7-5.7V101.3h245.4c0.4,0,0.4,0,0.4,0h0.4h15.9V201c0,2.7,1.9,4.9,4.9,4.9
		c2.7,0,4.9-1.9,4.9-4.9V65.3c0-8.7-7.2-15.2-15.2-15.2h-251c-8.7,0-15.2,7.2-15.2,15.2v215c0,8.7,7.2,15.2,15.2,15.2h177.9
		c2.7,0,4.9-1.9,4.9-4.9C219.6,287.9,217.7,285.6,214.3,285.6z M31.1,65.3c0-3,2.7-5.7,5.7-5.7h251.4c3,0,5.7,2.7,5.7,5.7v26.5H278
		c-0.4,0-0.4,0-0.4,0h-0.4H31.1V65.3z"/>
	<path d="M73.6,123.3c-8.7,0-15.2,7.2-15.2,15.2s7.2,15.2,15.2,15.2c8.7,0,15.2-7.2,15.2-15.2S82,123.3,73.6,123.3z M73.6,144.1
		c-3,0-5.7-2.7-5.7-5.7c0-3,2.7-5.7,5.7-5.7s5.7,2.7,5.7,5.7C79.3,141.5,77,144.1,73.6,144.1z"/>
	<path d="M251.8,123.3H105.1c-2.7,0-4.9,1.9-4.9,4.9c0,2.7,1.9,4.9,4.9,4.9h146.8c2.7,0,4.9-1.9,4.9-4.9
		C256.8,125.2,254.9,123.3,251.8,123.3z"/>
	<path d="M115.7,154.4c2.7,0,4.9-1.9,4.9-4.9c0-3-1.9-4.9-4.9-4.9h-10.6c-2.7,0-4.9,1.9-4.9,4.9c0,3,1.9,4.9,4.9,4.9H115.7z"/>
	<path d="M178.3,154.4c2.7,0,4.9-1.9,4.9-4.9c0-3-1.9-4.9-4.9-4.9h-10.6c-2.7,0-4.9,1.9-4.9,4.9c0,3,1.9,4.9,4.9,4.9H178.3z"/>
	<path d="M146.8,154.4c2.7,0,4.9-1.9,4.9-4.9c0-3-1.9-4.9-4.9-4.9h-10.6c-2.7,0-4.9,1.9-4.9,4.9c0,3,1.9,4.9,4.9,4.9H146.8z"/>
	<path d="M73.6,175.6c-8.7,0-15.2,7.2-15.2,15.2c0,8.7,7.2,15.2,15.2,15.2c8.7,0,15.2-7.2,15.2-15.2C89.2,182.8,82,175.6,73.6,175.6
		z M73.6,196.5c-3,0-5.7-2.7-5.7-5.7c0-3,2.7-5.7,5.7-5.7s5.7,2.7,5.7,5.7C79.3,193.8,77,196.5,73.6,196.5z"/>
	<path d="M256.8,180.9c0-2.7-1.9-4.9-4.9-4.9H105.1c-2.7,0-4.9,1.9-4.9,4.9c0,3,1.9,4.9,4.9,4.9h146.8
		C254.9,185.5,256.8,183.2,256.8,180.9z"/>
	<path d="M115.7,206.3c2.7,0,4.9-1.9,4.9-4.9c0-3-1.9-4.9-4.9-4.9h-10.6c-2.7,0-4.9,1.9-4.9,4.9c0,3,1.9,4.9,4.9,4.9H115.7z"/>
	<path d="M178.3,206.3c2.7,0,4.9-1.9,4.9-4.9c0-3-1.9-4.9-4.9-4.9h-10.6c-2.7,0-4.9,1.9-4.9,4.9c0,3,1.9,4.9,4.9,4.9H178.3z"/>
	<path d="M146.8,206.3c2.7,0,4.9-1.9,4.9-4.9c0-3-1.9-4.9-4.9-4.9h-10.6c-2.7,0-4.9,1.9-4.9,4.9c0,3,1.9,4.9,4.9,4.9H146.8z"/>
	<path d="M73.6,228c-8.7,0-15.2,7.2-15.2,15.2s7.2,15.2,15.2,15.2c8.7,0,15.2-7.2,15.2-15.2S82,228,73.6,228z M73.6,248.8
		c-3,0-5.7-2.7-5.7-5.7c0-3,2.7-5.7,5.7-5.7s5.7,2.7,5.7,5.7C78.9,246.5,77,248.8,73.6,248.8z"/>
	<path d="M209.4,232.9c0-2.7-1.9-4.9-4.9-4.9h-99.4c-2.7,0-4.9,1.9-4.9,4.9c0,3,1.9,4.9,4.9,4.9h99.7
		C207.5,237.8,209.4,235.9,209.4,232.9z"/>
	<path d="M105.1,248.8c-2.7,0-4.9,1.9-4.9,4.9c0,2.7,1.9,4.9,4.9,4.9h10.6c2.7,0,4.9-1.9,4.9-4.9c0-2.7-1.9-4.9-4.9-4.9H105.1z"/>
	<path d="M168,248.8c-2.7,0-4.9,1.9-4.9,4.9c0,2.7,1.9,4.9,4.9,4.9h10.6c2.7,0,4.9-1.9,4.9-4.9c0-2.7-1.9-4.9-4.9-4.9H168z"/>
	<path d="M136.6,248.8c-2.7,0-4.9,1.9-4.9,4.9c0,2.7,1.9,4.9,4.9,4.9h10.6c2.7,0,4.9-1.9,4.9-4.9c0-2.7-1.9-4.9-4.9-4.9H136.6z"/>
</g>
</svg>
