<?xml version="1.0" encoding="utf-8"?>
<!-- Generator: Adobe Illustrator 22.1.0, SVG Export Plug-In . SVG Version: 6.00 Build 0)  -->
<svg version="1.1" id="Capa_1" xmlns="http://www.w3.org/2000/svg" xmlns:xlink="http://www.w3.org/1999/xlink" x="0px" y="0px"
	 viewBox="0 0 363 363" style="enable-background:new 0 0 363 363;" xml:space="preserve">
<g>
	<path d="M330.7,67.8c0-5.4-2.7-9.7-5.8-12.4c-2.7-2.3-6.6-3.9-10.1-3.9H48.6c-8.6,0-16.3,7-16.3,16.3l0.4,227.4
		c0,9.3,7.4,16.3,16.3,16.3h188.1c0.4,0,1.2,0,1.2,0H314c8.6,0,16.3-7,16.3-16.3L330.7,67.8z M43.1,67.8c0-3.1,2.7-5.8,5.8-5.8
		h266.2c0.4,0,1.2,0,1.6,0.4c2.3,1.2,3.1,3.1,3.1,5.4v28H42.8v-28H43.1z M314,300.6H125.9c-0.4,0-1.2,0-1.6,0H49
		c-3.1,0-5.8-2.7-5.8-5.8V105.5h259.2c0.4,0,0.4,0,0.4,0h0.4h16.7v189.3C319.9,297.9,317.1,300.6,314,300.6z"/>
	<g>
		<g>
			<g>
				<path d="M299.7,138.6H120.9c-2.3,0-4.3,2.3-4.3,4.3v46.2c0,2.3,2.3,4.3,4.3,4.3h178.8c2.3,0,4.3-2.3,4.3-4.3v-46.2
					C304.3,140.9,302.4,138.6,299.7,138.6z M295.4,185.6H125.1v-37.7h170.2V185.6z"/>
			</g>
		</g>
		<g>
			<g>
				<path d="M299.7,214.3H120.9c-2.3,0-4.3,2.3-4.3,4.3v46.2c0,2.3,2.3,4.3,4.3,4.3h178.8c2.3,0,4.3-2.3,4.3-4.3v-46.2
					C304.3,216.3,302.4,214.3,299.7,214.3z M295.4,261H125.1v-37.7h170.2V261z"/>
			</g>
		</g>
		<g>
			<g>
				<path d="M90.6,159.2c2.3-2.7,3.9-6.6,3.9-10.1c0-8.6-7-15.5-15.2-15.5s-15.2,7-15.2,15.5c0,3.9,1.6,7.4,3.9,10.1
					c-5.4,3.9-9.3,10.1-9.3,17.1v16.3c0,2.3,2.3,4.3,4.3,4.3h32.3c2.3,0,4.3-2.3,4.3-4.3v-16.3C99.5,169.3,96.4,162.7,90.6,159.2z
					 M79.3,142.4c3.9,0,6.6,3.1,6.6,6.6c0,3.9-3.1,6.6-6.6,6.6c-3.1,0-6.6-3.1-6.6-6.6C72.7,145.5,75.4,142.4,79.3,142.4z
					 M90.9,188.3H67.2v-11.7c0-6.6,5.4-11.7,11.7-11.7c6.6,0,11.7,5.4,11.7,11.7C90.9,176.3,90.9,188.3,90.9,188.3z"/>
			</g>
		</g>
		<g>
			<g>
				<path d="M90.6,236.1c2.3-2.7,3.9-6.6,3.9-10.1c0-8.6-7-15.5-15.2-15.5s-15.2,7-15.2,15.5c0,3.9,1.6,7.4,3.9,10.1
					c-5.4,3.9-9.3,10.1-9.3,17.1v16.3c0,2.3,2.3,4.3,4.3,4.3h32.3c2.3,0,4.3-2.3,4.3-4.3v-16.3C99.5,245.8,96.4,240,90.6,236.1z
					 M79.3,219c3.9,0,6.6,3.1,6.6,6.6c0,3.9-3.1,6.6-6.6,6.6c-3.1,0-6.6-3.1-6.6-6.6C72.7,222.1,75.4,219,79.3,219z M90.9,265.3
					H67.2v-11.7c0-6.6,5.4-11.7,11.7-11.7c6.6,0,11.7,5.4,11.7,11.7C90.9,253.2,90.9,265.3,90.9,265.3z"/>
			</g>
		</g>
	</g>
</g>
</svg>
