<?xml version="1.0" encoding="utf-8"?>
<!-- Generator: Adobe Illustrator 22.1.0, SVG Export Plug-In . SVG Version: 6.00 Build 0)  -->
<svg version="1.1" id="Capa_1" xmlns="http://www.w3.org/2000/svg" xmlns:xlink="http://www.w3.org/1999/xlink" x="0px" y="0px"
	 viewBox="0 0 363 363" style="enable-background:new 0 0 363 363;" xml:space="preserve">
<path d="M323.3,116.6c-1.1-1.5-2.6-2.2-4.5-2.2h-201L105.1,60c-1.9-7.5-8.6-12.7-16.5-12.7H55.3c-9.4,0-16.8,7.5-16.8,16.8
	S45.9,81,55.3,81h20.2l41.5,177c1.9,7.5,8.6,12.7,16.5,12.7h11.2c-3.4,4.9-5.6,10.5-5.6,16.8c0,15.3,12.4,28.1,28.1,28.1
	c15.3,0,28.1-12.4,28.1-28.1c0-6.4-2.2-12-5.6-16.8h47.9c-3.4,4.9-5.6,10.5-5.6,16.8c0,15.3,12.4,28.1,28.1,28.1
	c15.3,0,28.1-12.4,28.1-28.1c0-6.4-2.2-12-5.6-16.8l0,0c9.4,0,16.8-7.5,16.8-16.8s-7.5-16.8-16.8-16.8H147.4l-5.2-22.5h32.6l0,0l0,0
	h81.6l0,0l0,0h31.8c7.9,0,14.2-5.2,16.1-12.7l20.2-80.8C324.8,119.6,324.4,117.7,323.3,116.6z M158.2,125.5l4.1,33.3h-34.1
	l-7.9-33.3H158.2z M167.2,304.1c-9.4,0-16.8-7.5-16.8-16.8c0-9.4,7.5-16.8,16.8-16.8c9.4,0,16.8,7.5,16.8,16.8
	C184,296.6,176.2,304.1,167.2,304.1z M259.7,304.1c-9.4,0-16.8-7.5-16.8-16.8c0-9.4,7.5-16.8,16.8-16.8c9.4,0,16.8,7.5,16.8,16.8
	C276.5,296.6,269,304.1,259.7,304.1z M282.1,248.3c3,0,5.6,2.6,5.6,5.6c0,3-2.6,5.6-5.6,5.6H133.5c-2.6,0-4.9-1.9-5.2-4.1L84.5,69.8
	H55.3c-3,0-5.6-2.6-5.6-5.6s2.6-5.6,5.6-5.6h33.3c2.6,0,4.9,1.9,5.2,4.1l34.8,147.5l0,0l9,37.8L282.1,248.3L282.1,248.3z
	 M138.8,203.8l-7.9-33.3h32.6l4.1,33.3H138.8z M173.6,158.9l-4.1-33.3h40v33.3H173.6z M209.5,203.8h-30.3l-4.1-33.3h34.4
	L209.5,203.8L209.5,203.8z M251,203.8h-30.3v-16.8v-16.8h34.4L251,203.8z M256.3,158.9h-35.9v-33.3h40L256.3,158.9z M293.3,199.3
	c-0.7,2.6-3,4.1-5.2,4.1h-25.8l4.1-33.3h34.4L293.3,199.3z M303.4,158.9h-35.6l4.1-33.3h39.7L303.4,158.9z"/>
</svg>
