<?xml version="1.0" encoding="utf-8"?>
<!-- Generator: Adobe Illustrator 22.1.0, SVG Export Plug-In . SVG Version: 6.00 Build 0)  -->
<svg version="1.1" id="Capa_1" xmlns="http://www.w3.org/2000/svg" xmlns:xlink="http://www.w3.org/1999/xlink" x="0px" y="0px"
	 viewBox="0 0 57 57" style="enable-background:new 0 0 57 57;" xml:space="preserve">
<style type="text/css">
	.st0{clip-path:url(#SVGID_2_);fill:#FFFFFF;}
	.st1{fill:#FFFFFF;}
	.st2{fill:#D6D6D6;}
</style>
<g>
	<g>
		<g>
			<defs>
				<circle id="SVGID_1_" cx="28.5" cy="28.5" r="27.5"/>
			</defs>
			<use xlink:href="#SVGID_1_"  style="overflow:visible;fill:#D6D6D6;"/>
			<clipPath id="SVGID_2_">
				<use xlink:href="#SVGID_1_"  style="overflow:visible;"/>
			</clipPath>
			<path class="st0" d="M28.5,59.1c10.1,0,19.1-4.7,24.8-12c-2.4-7.7-8.9-13.9-17-16.3c-2.1,2-4.8,3.2-7.8,3.2s-5.7-1.2-7.8-3.2
				c-8.2,2.4-14.6,8.6-17,16.3C9.4,54.4,18.4,59.1,28.5,59.1z"/>
		</g>
		<circle class="st1" cx="28.5" cy="19.1" r="10.5"/>
	</g>
	<path class="st2" d="M28.5,57C12.8,57,0,44.2,0,28.5S12.8,0,28.5,0C44.2,0,57,12.8,57,28.5S44.2,57,28.5,57z M28.5,1.9
		C13.8,1.9,1.9,13.8,1.9,28.5S13.8,55,28.5,55C43.1,55,55,43.1,55,28.5S43.1,1.9,28.5,1.9z"/>
</g>
</svg>
