<?xml version="1.0" encoding="utf-8"?>
<!-- Generator: Adobe Illustrator 22.1.0, SVG Export Plug-In . SVG Version: 6.00 Build 0)  -->
<svg version="1.1" id="Capa_1" xmlns="http://www.w3.org/2000/svg" xmlns:xlink="http://www.w3.org/1999/xlink" x="0px" y="0px"
	 viewBox="0 0 122.7 122.7" style="enable-background:new 0 0 122.7 122.7;" xml:space="preserve">
<style type="text/css">
	.st0{fill:#E72B2B;}
</style>
<g>
	<path class="st0" d="M39.5,119.6H23.6c-4.1,0-7.4-3.3-7.4-7.4V85.7h-0.8c-4.1,0-7.4-3.3-7.4-7.4v-31c0-2,0.8-3.8,2.1-5.2
		c1.4-1.4,3.3-2.2,5.3-2.2c0,0,0,0,0,0h32.3c4.1,0,7.4,3.3,7.4,7.4v30.9c0,4.1-3.3,7.4-7.4,7.4h-0.8v26.6
		C46.9,116.2,43.6,119.6,39.5,119.6z M15.4,42.7c-1.2,0-2.3,0.5-3.2,1.3c-0.8,0.8-1.3,1.9-1.3,3.1v31c0,2.4,2,4.4,4.4,4.4h2.3
		c0.8,0,1.5,0.7,1.5,1.5v28c0,2.4,2,4.4,4.4,4.4h15.9c2.4,0,4.4-2,4.4-4.4V84.1c0-0.8,0.7-1.5,1.5-1.5h2.3c2.4,0,4.4-2,4.4-4.4V47.2
		c0-2.4-2-4.4-4.4-4.4H15.4C15.4,42.7,15.4,42.7,15.4,42.7z"/>
	<path class="st0" d="M31.5,37.3c-8.4,0-15.2-6.8-15.2-15.2S23.1,6.8,31.5,6.8s15.2,6.8,15.2,15.2S39.9,37.3,31.5,37.3z M31.5,9.8
		c-6.8,0-12.2,5.5-12.2,12.2s5.5,12.2,12.2,12.2s12.2-5.5,12.2-12.2S38.2,9.8,31.5,9.8z"/>
</g>
<g>
	<path class="st0" d="M103.6,39.7H71.3c0,0,0,0,0,0c-1.9,0-3.6,0.7-4.9,2c-1.3,1.3-2,3-2,4.9v32c0,3.8,3.1,6.9,6.9,6.9h1.3v27
		c0,3.8,3.1,6.9,6.9,6.9h15.9c3.8,0,6.9-3.1,6.9-6.9V85.6h1.3c3.8,0,6.9-3.1,6.9-6.9V46.7C110.5,42.9,107.4,39.7,103.6,39.7z"/>
	<path class="st0" d="M87.4,7.3c-8.2,0-14.8,6.6-14.8,14.8s6.6,14.8,14.8,14.8c8.2,0,14.8-6.6,14.8-14.8S95.6,7.3,87.4,7.3z"/>
</g>
</svg>
