<svg height="462pt" viewBox="0 -12 462 462" width="462pt" xmlns="http://www.w3.org/2000/svg"><path d="m462 50c-.011719-27.609375-22.390625-49.9882812-50-50h-362c-27.609375.0117188-49.9882812 22.390625-50 50v338c.0117188 27.609375 22.390625 49.988281 50 50h362c27.609375-.011719 49.988281-22.390625 50-50zm-20 338c.011719 7.960938-3.148438 15.597656-8.773438 21.226562-5.628906 5.625-13.265624 8.785157-21.226562 8.773438h-362c-7.960938.011719-15.597656-3.148438-21.226562-8.773438-5.625-5.628906-8.785157-13.265624-8.773438-21.226562v-338c-.011719-7.960938 3.148438-15.597656 8.773438-21.226562 5.628906-5.625 13.265624-8.785157 21.226562-8.773438h362c7.960938-.011719 15.597656 3.148438 21.226562 8.773438 5.625 5.628906 8.785157 13.265624 8.773438 21.226562zm0 0"/><path d="m126.699219 154.101562c6.996093.003907 13.867187-1.859374 19.902343-5.402343l11.199219 11.199219c1.875 1.890624 4.4375 2.9375 7.097657 2.902343 2.65625-.011719 5.199218-1.050781 7.101562-2.902343 1.871094-1.867188 2.925781-4.402344 2.925781-7.046876 0-2.648437-1.054687-5.183593-2.925781-7.050781l-11.199219-11.199219c9.074219-15.445312 6.628907-35.066406-5.964843-47.808593-12.59375-12.742188-32.179688-15.421875-47.730469-6.527344-15.554688 8.894531-23.179688 27.132813-18.582031 44.449219 4.59375 17.316406 20.261718 29.375 38.175781 29.386718zm0-59c10.769531 0 19.5 8.730469 19.5 19.5 0 10.769532-8.730469 19.5-19.5 19.5s-19.5-8.730468-19.5-19.5c-.007813-5.175781 2.042969-10.140624 5.699219-13.800781 3.660156-3.660156 8.625-5.710937 13.800781-5.699219zm0 0"/><path d="m409 59c-.015625-5.515625-4.484375-9.984375-10-10h-336c-5.515625.015625-9.984375 4.484375-10 10v120c.015625 5.515625 4.484375 9.984375 10 10h336c5.515625-.015625 9.984375-4.484375 10-10zm-20 110h-316v-100h316zm0 0"/><path d="m133 222c-.015625-5.515625-4.484375-9.984375-10-10h-60c-5.515625.015625-9.984375 4.484375-10 10v60c.015625 5.515625 4.484375 9.984375 10 10h60c5.515625-.015625 9.984375-4.484375 10-10zm-20 50h-40v-40h40zm0 0"/><path d="m157 242h118c5.523438 0 10-4.476562 10-10s-4.476562-10-10-10h-118c-5.523438 0-10 4.476562-10 10s4.476562 10 10 10zm0 0"/><path d="m365 262h-208c-5.523438 0-10 4.476562-10 10s4.476562 10 10 10h208c5.523438 0 10-4.476562 10-10s-4.476562-10-10-10zm0 0"/><path d="m133 317c-.015625-5.515625-4.484375-9.984375-10-10h-60c-5.515625.015625-9.984375 4.484375-10 10v60c.015625 5.515625 4.484375 9.984375 10 10h60c5.515625-.015625 9.984375-4.484375 10-10zm-20 50h-40v-40h40zm0 0"/><path d="m157 337h118c5.523438 0 10-4.476562 10-10s-4.476562-10-10-10h-118c-5.523438 0-10 4.476562-10 10s4.476562 10 10 10zm0 0"/><path d="m365 357h-208c-5.523438 0-10 4.476562-10 10s4.476562 10 10 10h208c5.523438 0 10-4.476562 10-10s-4.476562-10-10-10zm0 0"/></svg>