<?xml version="1.0" encoding="utf-8"?>
<!-- Generator: Adobe Illustrator 22.1.0, SVG Export Plug-In . SVG Version: 6.00 Build 0)  -->
<svg version="1.1" id="Слой_1" xmlns="http://www.w3.org/2000/svg" xmlns:xlink="http://www.w3.org/1999/xlink" x="0px" y="0px"
	 viewBox="0 0 309.2 261" style="enable-background:new 0 0 309.2 261;" xml:space="preserve">
<style type="text/css">
	.st0{fill:#F24942;}
</style>
<g>
	<path class="st0" d="M49.8,192.3h37.7l28-67.8l1.1,67.8h8.1h29.5h4.5l26.8-66l0.2,66h49.5L228,68.8c-0.2-4-3.7-7.3-7.7-7.3h-8.5
		h-26.4h-6.7l-26.4,64.1l-1.7-56.8c-0.1-4-3.5-7.3-7.5-7.3h-1.6h-27h-10.7L49.8,192.3L49.8,192.3z M119.3,0h73.2l-8.3,20h-64.9
		c-34,0-67.9,29.1-75,62L21.4,187.5C15,216.9,32,241,62.7,241h29.8l-8.3,20H62.7C20,261-7.5,226,1.8,183.2L24.6,77.8
		C33.9,35,76.5,0,119.3,0L119.3,0z M225,0h21.5c42.8,0,70.2,35,60.9,77.8l-22.8,105.5c-9.3,42.8-51.8,77.8-94.6,77.8h-73.3l8.3-20
		h65c34,0,67.9-29.1,75-62l22.8-105.5c6.4-29.4-10.6-53.5-41.3-53.5h-29.8L225,0L225,0z"/>
</g>
</svg>
