<?xml version="1.0" encoding="utf-8"?>
<!-- Generator: Adobe Illustrator 22.1.0, SVG Export Plug-In . SVG Version: 6.00 Build 0)  -->
<svg version="1.1" id="Layer_1" xmlns="http://www.w3.org/2000/svg" xmlns:xlink="http://www.w3.org/1999/xlink" x="0px" y="0px"
	 viewBox="0 0 68.6 54" style="enable-background:new 0 0 68.6 54;" xml:space="preserve">
<g>
	<g>
		<path d="M68.6,48.8c-0.2-2.6-2.3-4.5-4.8-4.6l-4.8-13.5l0,0L51.3,8.6c1.8-1.6,2.2-4.2,1-6.3c-1.4-2.3-4.5-3-6.8-1.6
			c-2.3,1.4-3,4.5-1.6,6.8c1,1.6,2.7,2.4,4.4,2.3l9.7,27.5c0,0,0,0,0,0l0.1,0.3l1.7,4.8c0,0,0,0,0,0l1,2.8c-0.2,0.1-0.3,0.3-0.5,0.4
			L9.8,18.3c0.3-1.7-0.3-3.5-1.8-4.7c-2.1-1.7-5.2-1.4-6.9,0.8c-1.7,2.1-1.4,5.2,0.8,6.9c1.9,1.5,4.5,1.4,6.3-0.1l2.7,1.4
			c0,0,0,0,0,0l48,26c0,0.3,0,0.6,0,0.8c0.2,2.7,2.5,4.8,5.2,4.6c1.1-0.1,2-0.5,2.8-1.1l0,0l0,0C68,51.9,68.7,50.4,68.6,48.8z"/>
	</g>
	<path d="M65,17.2c-1.7-0.8-3.7-0.1-4.6,1.5L50,17l0,0l-17.1-2.8c-0.4-1.7-1.9-2.9-3.7-2.8c-2,0.1-3.5,1.8-3.4,3.8
		c0.1,2,1.8,3.5,3.8,3.4c1.4-0.1,2.5-0.9,3-2l21.2,3.4c0,0,0,0,0,0l0.3,0l3.7,0.6c0,0,0,0,0,0l2.1,0.3c0,0.2,0.1,0.3,0.1,0.5
		l-35.5,23c-1-0.8-2.4-1-3.6-0.5c-1.8,0.8-2.7,2.9-1.9,4.7c0.8,1.8,2.9,2.7,4.7,1.9c1.6-0.7,2.5-2.4,2.1-4.1l1.9-1.2c0,0,0,0,0,0
		l33.7-21.9c0.2,0.1,0.3,0.2,0.5,0.3c1.8,0.8,4,0,4.8-1.8c0.3-0.7,0.4-1.5,0.3-2.2l0,0l0,0C66.8,18.7,66.1,17.7,65,17.2z"/>
</g>
</svg>
