<?xml version="1.0" encoding="utf-8"?>
<!-- Generator: Adobe Illustrator 22.1.0, SVG Export Plug-In . SVG Version: 6.00 Build 0)  -->
<svg version="1.1" id="Capa_1" xmlns="http://www.w3.org/2000/svg" xmlns:xlink="http://www.w3.org/1999/xlink" x="0px" y="0px"
	 viewBox="0 0 363 363" style="enable-background:new 0 0 363 363;" xml:space="preserve">
<g>
	<path d="M117,169l129.4,2.2c3.3,0,5.5-2.2,5.5-5.5c0-3.3-2.2-5.5-5.5-5.5L117,158c-3.3,0-5.5,2.2-5.5,5.5S114.1,169,117,169z"/>
	<path d="M117,201.3l129.4,2.2c3.3,0,5.5-2.2,5.5-5.5s-2.2-5.5-5.5-5.5L117,190.3c-3.3,0-5.5,2.2-5.5,5.5
		C111.5,199.1,114.1,201.3,117,201.3z"/>
	<path d="M117,233.9l129.4,2.2c3.3,0,5.5-2.2,5.5-5.5c0-3.3-2.2-5.5-5.5-5.5L117,222.9c-3.3,0-5.5,2.2-5.5,5.5
		C111.9,231.3,114.1,233.9,117,233.9z"/>
	<path d="M322.2,151.5c2.2,0,4.4-1.5,4.4-4.4V95.4c0-2.2-1.5-4.4-4.4-4.4h-19.1v-5.5V69v-7.3c0-0.4,0-1.1,0-1.5
		c0-0.4-0.4-1.1-0.4-1.1l-10.6-15.4l7.3-10.6c1.5-2.6,1.5-5.5,0.4-8.1c-1.5-3.3-4.4-4.8-7-4.8H52.1c-9.2,0-16.5,7.3-16.5,17.2v288
		c0,9.5,7.3,17.2,17.2,17.2h233.8c9.5,0,17.2-8.1,17.2-17.2v-26.8H323c2.2,0,4.4-1.5,4.4-4.4v-51.3c0-2.2-1.5-4.4-4.4-4.4h-19.1
		v-13.9H323c2.2,0,4.4-1.5,4.4-4.4v-51.7c0-2.2-1.5-4.4-4.4-4.4h-19.1v-13.9h18.7v1.1H322.2z M318.6,99.8v43.6h-15v-16.1v-9.5V99h15
		V99.8z M60.2,332.5h-8.1c-4.4,0-7.3-3.3-7.3-7.3V66.4h15v266.4L60.2,332.5L60.2,332.5z M44.8,57.3V37.5c0-4.4,3.3-7.3,7.3-7.3
		h237.5l-5.9,9.2h-195c-2.6,0-4.8,2.2-4.8,4.8c0,2.6,2.2,4.8,4.8,4.8h195l5.9,9.2H64.2H44.4v-0.7L44.8,57.3L44.8,57.3z M294,81.1
		v4.8v238.6c0,4.4-3.7,8.1-8.1,8.1H69V66.1h224.6v15L294,81.1L294,81.1z M318.6,246.7v43.6h-15v-43.6H318.6z M318.6,173.1v43.6h-15
		v-43.6H318.6z"/>
</g>
</svg>
