<?xml version="1.0" encoding="utf-8"?>
<!-- Generator: Adobe Illustrator 22.1.0, SVG Export Plug-In . SVG Version: 6.00 Build 0)  -->
<svg version="1.1" id="Capa_1" xmlns="http://www.w3.org/2000/svg" xmlns:xlink="http://www.w3.org/1999/xlink" x="0px" y="0px"
	 viewBox="0 0 363 363" style="enable-background:new 0 0 363 363;" xml:space="preserve">
<g>
	<g>
		<g>
			<path d="M241.9,223.6c-3.6,0-6.8,3.2-6.8,6.8v46.2c0,18.6-14.9,33.5-33.5,33.5h-72c-3.6,0-6.8,3.2-6.8,6.8V330L107,314.2
				c-0.9-2.3-3.2-4.1-6.3-4.1H57.2c-18.6,0-33.5-14.9-33.5-33.5V173.8c0-18.6,14.9-33.5,33.5-33.5h67.5c3.6,0,6.8-3.2,6.8-6.8
				c0-3.6-3.2-6.8-6.8-6.8h-67c-25.8,0-46.6,20.8-46.6,46.6v103.2c0,25.8,20.8,46.6,46.6,46.6h39.8l27.6,27.6
				c1.4,1.4,3.2,1.8,4.5,1.8c0.9,0,1.8,0,2.7-0.5c2.7-0.9,4.1-3.6,4.1-6.3v-22.6h65.7c25.8,0,46.6-20.8,46.6-46.6v-46.2
				C248.7,226.8,245.6,223.6,241.9,223.6z"/>
		</g>
	</g>
	<g>
		<g>
			<path d="M255.5,10.3h-16.8c-53.4,0-97.4,43.5-97.4,97.4s43.5,97.4,97.4,97.4h16.8c8.2,0,16.8-0.9,24.5-3.2l24.9,24.9
				c1.4,1.4,3.2,1.8,4.5,1.8c0.9,0,1.8,0,2.7-0.5c2.7-0.9,4.1-3.6,4.1-6.3v-38.5c10.4-8.6,19.5-19.5,25.4-31.7
				c6.8-13.6,10.4-28.5,10.4-43.9C352.9,53.8,309.4,10.3,255.5,10.3z M306.2,174.7c-1.8,1.4-2.7,3.2-2.7,5.4V206l-16.3-16.3
				c-1.4-1.4-3.2-1.8-4.5-1.8c-0.5,0-1.4,0-1.8,0.5c-8.2,2.3-16.3,3.6-24.5,3.6h-16.8c-46.2,0-83.8-37.6-83.8-83.8
				s37.6-83.8,83.8-83.8h16.8c46.2,0,83.8,37.6,83.8,83.8C339.3,134,327.1,158.4,306.2,174.7z"/>
		</g>
	</g>
	<g>
		<g>
			<path d="M277.3,83.7c-0.9-14-12.2-25.4-26.3-26.3c-8.2-0.5-15.4,2.3-21.3,7.7c-5.9,5.4-9.1,12.7-9.1,20.8c0,3.6,3.2,6.8,6.8,6.8
				s6.8-3.2,6.8-6.8c0-4.1,1.8-8.2,4.5-10.9c3.2-2.7,7.2-4.1,11.3-4.1c7.2,0.5,13.1,6.3,14,14c0.5,7.2-4.5,14-11.8,15.8
				c-5.9,1.4-10,6.3-10,12.2V129c0,3.6,3.2,6.8,6.8,6.8s6.8-3.2,6.8-6.8v-15.4C269.1,110,278.2,97.3,277.3,83.7z"/>
		</g>
	</g>
	<g>
		<g>
			<path d="M253.7,150.3c-1.4-1.4-3.2-1.8-4.5-1.8c-1.8,0-3.6,0.9-4.5,1.8c-1.4,1.4-1.8,3.2-1.8,4.5c0,1.8,0.9,3.6,1.8,4.5
				c1.4,1.4,3.2,1.8,4.5,1.8c1.8,0,3.6-0.9,4.5-1.8c1.4-1.4,1.8-3.2,1.8-4.5C256,153.4,255.1,151.6,253.7,150.3z"/>
		</g>
	</g>
	<g>
		<g>
			<path d="M194.4,218.2H53.6c-3.6,0-6.8,2.7-6.8,6.3s3.2,6.3,6.8,6.3h140.8c3.6,0,6.8-2.7,6.8-6.3S198,218.2,194.4,218.2z"/>
		</g>
	</g>
	<path d="M201.2,263c0-0.5,0-0.9,0-1.4c0-0.5,0-0.9,0-1.4c-0.5-2.7-2.7-4.5-5.4-5c-0.5,0-142.2,0-142.2,0c-3.6,0-6.8,2.7-6.8,6.3
		s3.2,6.3,6.8,6.3c0,0,141.7,0,142.2,0C198.5,267.5,200.3,265.7,201.2,263z"/>
	<g>
		<g>
			<path d="M150.9,181.5H53.6c-3.6,0-6.8,2.7-6.8,6.3c0,3.6,3.2,6.3,6.8,6.3h97.4c3.6,0,6.8-2.7,6.8-6.3
				C157.7,184.2,154.5,181.5,150.9,181.5z"/>
		</g>
	</g>
</g>
</svg>
